<?xml version="1.0" encoding="UTF-8" standalone="no"?>
<!DOCTYPE svg PUBLIC "-//W3C//DTD SVG 1.1//EN"
 "http://www.w3.org/Graphics/SVG/1.1/DTD/svg11.dtd">
<!-- Generated by graphviz version 5.0.0 (20220707.1540)
 -->
<!-- Title: dependencies Pages: 1 -->
<svg width="1869pt" height="247pt"
 viewBox="0.00 0.00 1869.00 246.80" xmlns="http://www.w3.org/2000/svg" xmlns:xlink="http://www.w3.org/1999/xlink">
<g id="graph0" class="graph" transform="scale(1 1) rotate(0) translate(4 242.8)">
<title>dependencies</title>
<polygon fill="white" stroke="transparent" points="-4,4 -4,-242.8 1865,-242.8 1865,4 -4,4"/>
<text text-anchor="middle" x="930.5" y="-8.2" font-family="sans-serif" font-size="14.00">dependencies</text>
<g id="clust1" class="cluster">
<title>cluster_CommonPipsModule</title>
<polygon fill="none" stroke="black" stroke-dasharray="1,5" points="8,-32.8 8,-230.8 1853,-230.8 1853,-32.8 8,-32.8"/>
</g>
<g id="clust15" class="cluster">
<title>cluster_CommonPipsModule_exports</title>
<polygon fill="none" stroke="black" points="16,-170.8 16,-222.8 1845,-222.8 1845,-170.8 16,-170.8"/>
</g>
<g id="clust2" class="cluster">
<title>cluster_CommonPipsModule_declarations</title>
<polygon fill="none" stroke="black" points="34,-40.8 34,-92.8 1827,-92.8 1827,-40.8 34,-40.8"/>
</g>
<!-- ArrayOfIntermitPointforcsvPipe -->
<g id="node1" class="node">
<title>ArrayOfIntermitPointforcsvPipe</title>
<polygon fill="#ffffb3" stroke="black" points="1818.96,-84.8 1621.04,-84.8 1621.04,-48.8 1818.96,-48.8 1818.96,-84.8"/>
<text text-anchor="middle" x="1720" y="-62.6" font-family="Times,serif" font-size="14.00">ArrayOfIntermitPointforcsvPipe</text>
</g>
<!-- CommonPipsModule -->
<g id="node12" class="node">
<title>CommonPipsModule</title>
<polygon fill="#8dd3c7" stroke="black" points="1031.79,-149.8 1028.79,-153.8 1007.79,-153.8 1004.79,-149.8 896.21,-149.8 896.21,-113.8 1031.79,-113.8 1031.79,-149.8"/>
<text text-anchor="middle" x="964" y="-127.6" font-family="Times,serif" font-size="14.00">CommonPipsModule</text>
</g>
<!-- ArrayOfIntermitPointforcsvPipe&#45;&gt;CommonPipsModule -->
<g id="edge1" class="edge">
<title>ArrayOfIntermitPointforcsvPipe&#45;&gt;CommonPipsModule</title>
<path fill="none" stroke="black" d="M1628.15,-84.97C1628.15,-103.89 1628.15,-130.8 1628.15,-130.8 1628.15,-130.8 1041.95,-130.8 1041.95,-130.8"/>
<polygon fill="black" stroke="black" points="1041.95,-127.3 1031.95,-130.8 1041.95,-134.3 1041.95,-127.3"/>
</g>
<!-- ArrayofstringPipe -->
<g id="node2" class="node">
<title>ArrayofstringPipe</title>
<polygon fill="#ffffb3" stroke="black" points="1602.59,-84.8 1485.41,-84.8 1485.41,-48.8 1602.59,-48.8 1602.59,-84.8"/>
<text text-anchor="middle" x="1544" y="-62.6" font-family="Times,serif" font-size="14.00">ArrayofstringPipe</text>
</g>
<!-- ArrayofstringPipe&#45;&gt;CommonPipsModule -->
<g id="edge2" class="edge">
<title>ArrayofstringPipe&#45;&gt;CommonPipsModule</title>
<path fill="none" stroke="black" d="M1491.08,-85.1C1491.08,-103.07 1491.08,-127.8 1491.08,-127.8 1491.08,-127.8 1041.83,-127.8 1041.83,-127.8"/>
<polygon fill="black" stroke="black" points="1041.83,-124.3 1031.83,-127.8 1041.83,-131.3 1041.83,-124.3"/>
</g>
<!-- CalHourMinPipe -->
<g id="node3" class="node">
<title>CalHourMinPipe</title>
<polygon fill="#ffffb3" stroke="black" points="1467.44,-84.8 1354.56,-84.8 1354.56,-48.8 1467.44,-48.8 1467.44,-84.8"/>
<text text-anchor="middle" x="1411" y="-62.6" font-family="Times,serif" font-size="14.00">CalHourMinPipe</text>
</g>
<!-- CalHourMinPipe&#45;&gt;CommonPipsModule -->
<g id="edge3" class="edge">
<title>CalHourMinPipe&#45;&gt;CommonPipsModule</title>
<path fill="none" stroke="black" d="M1358.9,-84.84C1358.9,-101.53 1358.9,-123.8 1358.9,-123.8 1358.9,-123.8 1041.89,-123.8 1041.89,-123.8"/>
<polygon fill="black" stroke="black" points="1041.89,-120.3 1031.89,-123.8 1041.89,-127.3 1041.89,-120.3"/>
</g>
<!-- FilterTripStatusPipe -->
<g id="node4" class="node">
<title>FilterTripStatusPipe</title>
<polygon fill="#ffffb3" stroke="black" points="1336.55,-84.8 1207.45,-84.8 1207.45,-48.8 1336.55,-48.8 1336.55,-84.8"/>
<text text-anchor="middle" x="1272" y="-62.6" font-family="Times,serif" font-size="14.00">FilterTripStatusPipe</text>
</g>
<!-- FilterTripStatusPipe&#45;&gt;CommonPipsModule -->
<g id="edge4" class="edge">
<title>FilterTripStatusPipe&#45;&gt;CommonPipsModule</title>
<path fill="none" stroke="black" d="M1295.34,-85.08C1295.34,-100.75 1295.34,-120.8 1295.34,-120.8 1295.34,-120.8 1041.85,-120.8 1041.85,-120.8"/>
<polygon fill="black" stroke="black" points="1041.85,-117.3 1031.85,-120.8 1041.85,-124.3 1041.85,-117.3"/>
</g>
<!-- FilterstringgetdatePipe -->
<g id="node5" class="node">
<title>FilterstringgetdatePipe</title>
<polygon fill="#ffffb3" stroke="black" points="1188.53,-84.8 1045.47,-84.8 1045.47,-48.8 1188.53,-48.8 1188.53,-84.8"/>
<text text-anchor="middle" x="1117" y="-62.6" font-family="Times,serif" font-size="14.00">FilterstringgetdatePipe</text>
</g>
<!-- FilterstringgetdatePipe&#45;&gt;CommonPipsModule -->
<g id="edge5" class="edge">
<title>FilterstringgetdatePipe&#45;&gt;CommonPipsModule</title>
<path fill="none" stroke="black" d="M1141.67,-84.92C1141.67,-99.58 1141.67,-117.8 1141.67,-117.8 1141.67,-117.8 1041.93,-117.8 1041.93,-117.8"/>
<polygon fill="black" stroke="black" points="1041.93,-114.3 1031.93,-117.8 1041.93,-121.3 1041.93,-114.3"/>
</g>
<!-- FormatAddressPipe -->
<g id="node6" class="node">
<title>FormatAddressPipe</title>
<polygon fill="#ffffb3" stroke="black" points="1027.71,-84.8 900.29,-84.8 900.29,-48.8 1027.71,-48.8 1027.71,-84.8"/>
<text text-anchor="middle" x="964" y="-62.6" font-family="Times,serif" font-size="14.00">FormatAddressPipe</text>
</g>
<!-- FormatAddressPipe&#45;&gt;CommonPipsModule -->
<g id="edge6" class="edge">
<title>FormatAddressPipe&#45;&gt;CommonPipsModule</title>
<path fill="none" stroke="black" d="M964,-84.91C964,-84.91 964,-103.79 964,-103.79"/>
<polygon fill="black" stroke="black" points="960.5,-103.79 964,-113.79 967.5,-103.79 960.5,-103.79"/>
</g>
<!-- MergeStringPipe -->
<g id="node7" class="node">
<title>MergeStringPipe</title>
<polygon fill="#ffffb3" stroke="black" points="882.66,-84.8 771.34,-84.8 771.34,-48.8 882.66,-48.8 882.66,-84.8"/>
<text text-anchor="middle" x="827" y="-62.6" font-family="Times,serif" font-size="14.00">MergeStringPipe</text>
</g>
<!-- MergeStringPipe&#45;&gt;CommonPipsModule -->
<g id="edge7" class="edge">
<title>MergeStringPipe&#45;&gt;CommonPipsModule</title>
<path fill="none" stroke="black" d="M844.11,-84.92C844.11,-99.58 844.11,-117.8 844.11,-117.8 844.11,-117.8 886,-117.8 886,-117.8"/>
<polygon fill="black" stroke="black" points="886,-121.3 896,-117.8 886,-114.3 886,-121.3"/>
</g>
<!-- SecToDDHHMMPipe -->
<g id="node8" class="node">
<title>SecToDDHHMMPipe</title>
<polygon fill="#ffffb3" stroke="black" points="752.99,-84.8 611.01,-84.8 611.01,-48.8 752.99,-48.8 752.99,-84.8"/>
<text text-anchor="middle" x="682" y="-62.6" font-family="Times,serif" font-size="14.00">SecToDDHHMMPipe</text>
</g>
<!-- SecToDDHHMMPipe&#45;&gt;CommonPipsModule -->
<g id="edge8" class="edge">
<title>SecToDDHHMMPipe&#45;&gt;CommonPipsModule</title>
<path fill="none" stroke="black" d="M702.17,-85.08C702.17,-100.75 702.17,-120.8 702.17,-120.8 702.17,-120.8 885.89,-120.8 885.89,-120.8"/>
<polygon fill="black" stroke="black" points="885.89,-124.3 895.89,-120.8 885.89,-117.3 885.89,-124.3"/>
</g>
<!-- SumofbillingNoOfUnitsPipe -->
<g id="node9" class="node">
<title>SumofbillingNoOfUnitsPipe</title>
<polygon fill="#ffffb3" stroke="black" points="592.51,-84.8 415.49,-84.8 415.49,-48.8 592.51,-48.8 592.51,-84.8"/>
<text text-anchor="middle" x="504" y="-62.6" font-family="Times,serif" font-size="14.00">SumofbillingNoOfUnitsPipe</text>
</g>
<!-- SumofbillingNoOfUnitsPipe&#45;&gt;CommonPipsModule -->
<g id="edge9" class="edge">
<title>SumofbillingNoOfUnitsPipe&#45;&gt;CommonPipsModule</title>
<path fill="none" stroke="black" d="M588.38,-84.84C588.38,-101.53 588.38,-123.8 588.38,-123.8 588.38,-123.8 885.98,-123.8 885.98,-123.8"/>
<polygon fill="black" stroke="black" points="885.98,-127.3 895.98,-123.8 885.98,-120.3 885.98,-127.3"/>
</g>
<!-- SumofbillingWeightPerUnit -->
<g id="node10" class="node">
<title>SumofbillingWeightPerUnit</title>
<polygon fill="#ffffb3" stroke="black" points="397.16,-84.8 222.84,-84.8 222.84,-48.8 397.16,-48.8 397.16,-84.8"/>
<text text-anchor="middle" x="310" y="-62.6" font-family="Times,serif" font-size="14.00">SumofbillingWeightPerUnit</text>
</g>
<!-- SumofbillingWeightPerUnit&#45;&gt;CommonPipsModule -->
<g id="edge10" class="edge">
<title>SumofbillingWeightPerUnit&#45;&gt;CommonPipsModule</title>
<path fill="none" stroke="black" d="M391.7,-85.1C391.7,-103.07 391.7,-127.8 391.7,-127.8 391.7,-127.8 886.1,-127.8 886.1,-127.8"/>
<polygon fill="black" stroke="black" points="886.1,-131.3 896.1,-127.8 886.1,-124.3 886.1,-131.3"/>
</g>
<!-- getArrayElementSumPipe -->
<g id="node11" class="node">
<title>getArrayElementSumPipe</title>
<polygon fill="#ffffb3" stroke="black" points="204.47,-84.8 41.53,-84.8 41.53,-48.8 204.47,-48.8 204.47,-84.8"/>
<text text-anchor="middle" x="123" y="-62.6" font-family="Times,serif" font-size="14.00">getArrayElementSumPipe</text>
</g>
<!-- getArrayElementSumPipe&#45;&gt;CommonPipsModule -->
<g id="edge11" class="edge">
<title>getArrayElementSumPipe&#45;&gt;CommonPipsModule</title>
<path fill="none" stroke="black" d="M197.36,-84.97C197.36,-103.89 197.36,-130.8 197.36,-130.8 197.36,-130.8 885.97,-130.8 885.97,-130.8"/>
<polygon fill="black" stroke="black" points="885.97,-134.3 895.97,-130.8 885.97,-127.3 885.97,-134.3"/>
</g>
<!-- ArrayOfIntermitPointforcsvPipe  -->
<g id="node13" class="node">
<title>ArrayOfIntermitPointforcsvPipe </title>
<polygon fill="#fb8072" stroke="black" points="1836.96,-214.8 1635.04,-214.8 1635.04,-178.8 1836.96,-178.8 1836.96,-214.8"/>
<text text-anchor="middle" x="1736" y="-192.6" font-family="Times,serif" font-size="14.00">ArrayOfIntermitPointforcsvPipe </text>
</g>
<!-- CommonPipsModule&#45;&gt;ArrayOfIntermitPointforcsvPipe  -->
<g id="edge12" class="edge">
<title>CommonPipsModule&#45;&gt;ArrayOfIntermitPointforcsvPipe </title>
<path fill="none" stroke="black" stroke-dasharray="5,2" d="M1032.06,-133.8C1219.1,-133.8 1727.12,-133.8 1727.12,-133.8 1727.12,-133.8 1727.12,-168.58 1727.12,-168.58"/>
<polygon fill="black" stroke="black" points="1723.63,-168.58 1727.12,-178.58 1730.63,-168.58 1723.63,-168.58"/>
</g>
<!-- ArrayofstringPipe  -->
<g id="node14" class="node">
<title>ArrayofstringPipe </title>
<polygon fill="#fb8072" stroke="black" points="1617.09,-214.8 1496.91,-214.8 1496.91,-178.8 1617.09,-178.8 1617.09,-214.8"/>
<text text-anchor="middle" x="1557" y="-192.6" font-family="Times,serif" font-size="14.00">ArrayofstringPipe </text>
</g>
<!-- CommonPipsModule&#45;&gt;ArrayofstringPipe  -->
<g id="edge13" class="edge">
<title>CommonPipsModule&#45;&gt;ArrayofstringPipe </title>
<path fill="none" stroke="black" stroke-dasharray="5,2" d="M1032.04,-136.8C1186.36,-136.8 1549.62,-136.8 1549.62,-136.8 1549.62,-136.8 1549.62,-168.8 1549.62,-168.8"/>
<polygon fill="black" stroke="black" points="1546.13,-168.8 1549.62,-178.8 1553.13,-168.8 1546.13,-168.8"/>
</g>
<!-- CalHourMinPipe  -->
<g id="node15" class="node">
<title>CalHourMinPipe </title>
<polygon fill="#fb8072" stroke="black" points="1478.94,-214.8 1363.06,-214.8 1363.06,-178.8 1478.94,-178.8 1478.94,-214.8"/>
<text text-anchor="middle" x="1421" y="-192.6" font-family="Times,serif" font-size="14.00">CalHourMinPipe </text>
</g>
<!-- CommonPipsModule&#45;&gt;CalHourMinPipe  -->
<g id="edge14" class="edge">
<title>CommonPipsModule&#45;&gt;CalHourMinPipe </title>
<path fill="none" stroke="black" stroke-dasharray="5,2" d="M1032.03,-140.8C1158.05,-140.8 1415.12,-140.8 1415.12,-140.8 1415.12,-140.8 1415.12,-168.77 1415.12,-168.77"/>
<polygon fill="black" stroke="black" points="1411.63,-168.77 1415.12,-178.77 1418.63,-168.77 1411.63,-168.77"/>
</g>
<!-- FilterTripStatusPipe  -->
<g id="node16" class="node">
<title>FilterTripStatusPipe </title>
<polygon fill="#fb8072" stroke="black" points="1345.55,-214.8 1212.45,-214.8 1212.45,-178.8 1345.55,-178.8 1345.55,-214.8"/>
<text text-anchor="middle" x="1279" y="-192.6" font-family="Times,serif" font-size="14.00">FilterTripStatusPipe </text>
</g>
<!-- CommonPipsModule&#45;&gt;FilterTripStatusPipe  -->
<g id="edge15" class="edge">
<title>CommonPipsModule&#45;&gt;FilterTripStatusPipe </title>
<path fill="none" stroke="black" stroke-dasharray="5,2" d="M1031.97,-143.8C1117.66,-143.8 1253.91,-143.8 1253.91,-143.8 1253.91,-143.8 1253.91,-168.56 1253.91,-168.56"/>
<polygon fill="black" stroke="black" points="1250.41,-168.56 1253.91,-178.56 1257.41,-168.56 1250.41,-168.56"/>
</g>
<!-- FilterstringgetdatePipe  -->
<g id="node17" class="node">
<title>FilterstringgetdatePipe </title>
<polygon fill="#fb8072" stroke="black" points="1194.53,-214.8 1047.47,-214.8 1047.47,-178.8 1194.53,-178.8 1194.53,-214.8"/>
<text text-anchor="middle" x="1121" y="-192.6" font-family="Times,serif" font-size="14.00">FilterstringgetdatePipe </text>
</g>
<!-- CommonPipsModule&#45;&gt;FilterstringgetdatePipe  -->
<g id="edge16" class="edge">
<title>CommonPipsModule&#45;&gt;FilterstringgetdatePipe </title>
<path fill="none" stroke="black" stroke-dasharray="5,2" d="M1031.97,-146.8C1063.69,-146.8 1094.58,-146.8 1094.58,-146.8 1094.58,-146.8 1094.58,-168.75 1094.58,-168.75"/>
<polygon fill="black" stroke="black" points="1091.08,-168.75 1094.58,-178.75 1098.08,-168.75 1091.08,-168.75"/>
</g>
<!-- FormatAddressPipe  -->
<g id="node18" class="node">
<title>FormatAddressPipe </title>
<polygon fill="#fb8072" stroke="black" points="1029.21,-214.8 898.79,-214.8 898.79,-178.8 1029.21,-178.8 1029.21,-214.8"/>
<text text-anchor="middle" x="964" y="-192.6" font-family="Times,serif" font-size="14.00">FormatAddressPipe </text>
</g>
<!-- CommonPipsModule&#45;&gt;FormatAddressPipe  -->
<g id="edge17" class="edge">
<title>CommonPipsModule&#45;&gt;FormatAddressPipe </title>
<path fill="none" stroke="black" stroke-dasharray="5,2" d="M964,-149.91C964,-149.91 964,-168.79 964,-168.79"/>
<polygon fill="black" stroke="black" points="960.5,-168.79 964,-178.79 967.5,-168.79 960.5,-168.79"/>
</g>
<!-- MergeStringPipe  -->
<g id="node19" class="node">
<title>MergeStringPipe </title>
<polygon fill="#fb8072" stroke="black" points="880.66,-214.8 765.34,-214.8 765.34,-178.8 880.66,-178.8 880.66,-214.8"/>
<text text-anchor="middle" x="823" y="-192.6" font-family="Times,serif" font-size="14.00">MergeStringPipe </text>
</g>
<!-- CommonPipsModule&#45;&gt;MergeStringPipe  -->
<g id="edge18" class="edge">
<title>CommonPipsModule&#45;&gt;MergeStringPipe </title>
<path fill="none" stroke="black" stroke-dasharray="5,2" d="M895.87,-146.8C853.74,-146.8 807.64,-146.8 807.64,-146.8 807.64,-146.8 807.64,-168.75 807.64,-168.75"/>
<polygon fill="black" stroke="black" points="804.14,-168.75 807.64,-178.75 811.14,-168.75 804.14,-168.75"/>
</g>
<!-- SecToDDHHMMPipe  -->
<g id="node20" class="node">
<title>SecToDDHHMMPipe </title>
<polygon fill="#fb8072" stroke="black" points="747.99,-214.8 602.01,-214.8 602.01,-178.8 747.99,-178.8 747.99,-214.8"/>
<text text-anchor="middle" x="675" y="-192.6" font-family="Times,serif" font-size="14.00">SecToDDHHMMPipe </text>
</g>
<!-- CommonPipsModule&#45;&gt;SecToDDHHMMPipe  -->
<g id="edge19" class="edge">
<title>CommonPipsModule&#45;&gt;SecToDDHHMMPipe </title>
<path fill="none" stroke="black" stroke-dasharray="5,2" d="M896.16,-143.8C805.63,-143.8 656.58,-143.8 656.58,-143.8 656.58,-143.8 656.58,-168.56 656.58,-168.56"/>
<polygon fill="black" stroke="black" points="653.08,-168.56 656.58,-178.56 660.08,-168.56 653.08,-168.56"/>
</g>
<!-- SumofbillingNoOfUnitsPipe  -->
<g id="node21" class="node">
<title>SumofbillingNoOfUnitsPipe </title>
<polygon fill="#fb8072" stroke="black" points="584.01,-214.8 403.99,-214.8 403.99,-178.8 584.01,-178.8 584.01,-214.8"/>
<text text-anchor="middle" x="494" y="-192.6" font-family="Times,serif" font-size="14.00">SumofbillingNoOfUnitsPipe </text>
</g>
<!-- CommonPipsModule&#45;&gt;SumofbillingNoOfUnitsPipe  -->
<g id="edge20" class="edge">
<title>CommonPipsModule&#45;&gt;SumofbillingNoOfUnitsPipe </title>
<path fill="none" stroke="black" stroke-dasharray="5,2" d="M896.02,-140.8C767.1,-140.8 499.88,-140.8 499.88,-140.8 499.88,-140.8 499.88,-168.77 499.88,-168.77"/>
<polygon fill="black" stroke="black" points="496.38,-168.77 499.88,-178.77 503.38,-168.77 496.38,-168.77"/>
</g>
<!-- SumofbillingWeightPerUnit  -->
<g id="node22" class="node">
<title>SumofbillingWeightPerUnit </title>
<polygon fill="#fb8072" stroke="black" points="386.16,-214.8 207.84,-214.8 207.84,-178.8 386.16,-178.8 386.16,-214.8"/>
<text text-anchor="middle" x="297" y="-192.6" font-family="Times,serif" font-size="14.00">SumofbillingWeightPerUnit </text>
</g>
<!-- CommonPipsModule&#45;&gt;SumofbillingWeightPerUnit  -->
<g id="edge21" class="edge">
<title>CommonPipsModule&#45;&gt;SumofbillingWeightPerUnit </title>
<path fill="none" stroke="black" stroke-dasharray="5,2" d="M896.2,-136.8C727.88,-136.8 304.38,-136.8 304.38,-136.8 304.38,-136.8 304.38,-168.8 304.38,-168.8"/>
<polygon fill="black" stroke="black" points="300.88,-168.8 304.38,-178.8 307.88,-168.8 300.88,-168.8"/>
</g>
<!-- getArrayElementSumPipe  -->
<g id="node23" class="node">
<title>getArrayElementSumPipe </title>
<polygon fill="#fb8072" stroke="black" points="190.47,-214.8 23.53,-214.8 23.53,-178.8 190.47,-178.8 190.47,-214.8"/>
<text text-anchor="middle" x="107" y="-192.6" font-family="Times,serif" font-size="14.00">getArrayElementSumPipe </text>
</g>
<!-- CommonPipsModule&#45;&gt;getArrayElementSumPipe  -->
<g id="edge22" class="edge">
<title>CommonPipsModule&#45;&gt;getArrayElementSumPipe </title>
<path fill="none" stroke="black" stroke-dasharray="5,2" d="M896.03,-133.8C694.77,-133.8 115.88,-133.8 115.88,-133.8 115.88,-133.8 115.88,-168.58 115.88,-168.58"/>
<polygon fill="black" stroke="black" points="112.38,-168.58 115.88,-178.58 119.38,-168.58 112.38,-168.58"/>
</g>
</g>
</svg>
